HIERARCHY
ROOT Hips
{
	OFFSET -3.958830 18.904000 13.208200
	CHANNELS 6 Xposition Yposition Zposition Zrotation Yrotation Xrotation 
	JOINT LHipJoint
	{
		OFFSET 0.000000 0.000000 0.000000
		CHANNELS 3 Zrotation Yrotation Xrotation
		JOINT LeftUpLeg
		{
			OFFSET 1.800000 -1.400000 0.085000
			CHANNELS 3 Zrotation Yrotation Xrotation
			JOINT LeftLeg
			{
				OFFSET 2.215000 -6.000000 0.000000
				CHANNELS 3 Zrotation Yrotation Xrotation
				JOINT LeftFoot
				{
					OFFSET 2.500000 -6.900000 0.000000
					CHANNELS 3 Zrotation Yrotation Xrotation
					JOINT LeftToeBase
					{
						OFFSET 0.200000 -0.500000 1.950000
						CHANNELS 3 Zrotation Yrotation Xrotation
						End Site
						{
							OFFSET 0.000000 0.000000 0.000000
						}
					}
				}
			}
		}
	}
	JOINT RHipJoint
	{
		OFFSET 0.000000 0.000000 0.000000
		CHANNELS 3 Zrotation Yrotation Xrotation
		JOINT RightUpLeg
		{
			OFFSET -1.800000 -1.400000 0.085000
			CHANNELS 3 Zrotation Yrotation Xrotation
			JOINT RightLeg
			{
				OFFSET -2.215000 -6.000000 0.000000
				CHANNELS 3 Zrotation Yrotation Xrotation
				JOINT RightFoot
				{
					OFFSET -2.500000 -6.900000 0.000000
					CHANNELS 3 Zrotation Yrotation Xrotation
					JOINT RightToeBase
					{
						OFFSET -0.200000 -0.500000 1.950000
						CHANNELS 3 Zrotation Yrotation Xrotation
						End Site
						{
							OFFSET 0.000000 0.000000 0.000000
						}
					}
				}
			}
		}
	}
	JOINT LowerBack
	{
		OFFSET 0.000000 0.000000 0.000000
		CHANNELS 3 Zrotation Yrotation Xrotation
		JOINT Spine
		{
			OFFSET -0.087000 1.940000 -0.288900
			CHANNELS 3 Zrotation Yrotation Xrotation
			JOINT Spine1
			{
				OFFSET 0.000000 1.950000 0.060000
				CHANNELS 3 Zrotation Yrotation Xrotation
				JOINT Neck
				{
					OFFSET 0.000000 0.000000 0.000000
					CHANNELS 3 Zrotation Yrotation Xrotation
					JOINT Neck1
					{
						OFFSET 0.000000 1.600000 0.340000
						CHANNELS 3 Zrotation Yrotation Xrotation
						JOINT Head
						{
							OFFSET 0.000000 1.667000 -0.240000
							CHANNELS 3 Zrotation Yrotation Xrotation
							End Site
							{
								OFFSET 0.000000 0.000000 0.000000
							}
						}
					}
				}
				JOINT LeftShoulder
				{
					OFFSET 0.000000 0.000000 0.000000
					CHANNELS 3 Zrotation Yrotation Xrotation
					JOINT LeftArm
					{
						OFFSET 2.700000 1.550000 -0.730000
						CHANNELS 3 Zrotation Yrotation Xrotation
						JOINT LeftForeArm
						{
							OFFSET 5.450000 0.000000 0.000000
							CHANNELS 3 Zrotation Yrotation Xrotation
							JOINT LeftHand
							{
								OFFSET 3.450000 0.000000 0.000000
								CHANNELS 3 Zrotation Yrotation Xrotation
								JOINT LeftHandIndex1
								{
									OFFSET 0.750000 0.000000 0.000000
									CHANNELS 3 Zrotation Yrotation Xrotation
									End Site
									{
										OFFSET 0.000000 0.000000 0.000000
									}
								}
							}
						}
					}
				}
				JOINT RightShoulder
				{
					OFFSET 0.000000 0.000000 0.000000
					CHANNELS 3 Zrotation Yrotation Xrotation
					JOINT RightArm
					{
						OFFSET -2.700000 1.550000 -0.730000
						CHANNELS 3 Zrotation Yrotation Xrotation
						JOINT RightForeArm
						{
							OFFSET -5.450000 0.000000 0.000000
							CHANNELS 3 Zrotation Yrotation Xrotation
							JOINT RightHand
							{
								OFFSET -3.450000 0.000000 0.000000
								CHANNELS 3 Zrotation Yrotation Xrotation
								JOINT RightHandIndex1
								{
									OFFSET -0.750000 0.000000 0.000000
									CHANNELS 3 Zrotation Yrotation Xrotation
									End Site
									{
										OFFSET 0.000000 0.000000 0.000000
									}
								}
							}
						}
					}
				}
			}
		}
	}
}
MOTION
Frames: 4
Frame Time: 0.016667
-1.545360 16.103880 -1.014340 -3.116191 -17.458354 -2.677927 -14.671232 10.982705 3.591115 30.041397 -0.299205 -23.846772 -7.465117 16.516994 44.057705 0.578620 9.356848 0.993409 0.741870 0.572720 0.822820 18.997605 -10.908399 3.693143 -17.290894 6.492245 -37.794929 4.858886 -13.141384 52.267854 -0.977849 -8.105260 1.423407 0.266060 -0.374110 -0.095740 -5.456661 3.102127 -8.535496 28.172813 -2.632538 16.234315 0.234018 -0.935362 6.883443 0.996399 10.313541 -14.679727 26.584552 -18.658255 33.815340 0.511950 -7.344920 -6.457350 -0.352482 -12.739821 7.791431 -35.259465 7.288068 -11.166081 37.135981 -37.690146 -9.953360 -3.111013 3.237552 0.334710 -0.233600 0.163070 0.075130 -2.436564 8.978587 5.767962 68.470410 24.328188 3.274103 -1.018223 26.236834 -2.702808 2.472072 -1.651548 0.032630 -0.041820 -0.488980 -0.216970 
-1.547160 16.094140 -1.011480 -2.882952 -17.350932 -2.953381 -14.663546 10.983997 3.593535 29.842816 -0.328779 -23.975247 -7.298367 16.583185 44.659874 0.618697 9.413359 0.978014 0.750920 0.597270 0.812780 19.003680 -10.924124 3.686380 -17.428886 6.444348 -37.804987 4.495551 -13.104673 52.740644 -0.994311 -8.163649 1.409816 0.272740 -0.375940 -0.093120 -5.475018 3.112776 -8.541778 28.510877 -2.729743 16.380108 -0.109620 -0.856469 6.964466 0.972662 10.111704 -14.485695 25.581406 -18.354407 33.907041 0.549710 -7.475260 -6.799360 -0.419581 -12.668626 7.685379 -35.282826 6.816839 -11.041755 36.589808 -37.539792 -9.755523 -3.103070 3.251038 0.320380 -0.236900 0.170940 0.087730 -2.315012 9.060567 5.776113 68.249167 24.272198 2.972309 -0.363597 26.987780 -2.643574 2.473307 -1.661422 0.049430 -0.044570 -0.499780 -0.200110 
-1.550810 16.073180 -1.006080 -2.389157 -17.153380 -3.297638 -14.658277 10.949409 3.609238 29.519533 -0.403575 -24.301216 -7.220045 16.784936 45.573464 0.646203 9.534338 0.932567 0.764910 0.624870 0.805620 19.016066 -10.927121 3.686617 -17.698482 6.382391 -38.117046 3.705069 -13.003523 53.763544 -1.023916 -8.284117 1.368291 0.288740 -0.384930 -0.097230 -5.503493 3.148643 -8.557724 28.682445 -2.759066 16.388432 -0.541784 -0.735119 7.168340 1.025925 9.838866 -14.261194 24.384249 -18.184457 34.029847 0.582140 -7.787160 -7.590870 -0.291034 -12.647970 7.567451 -35.453848 6.134782 -10.929072 35.914636 -37.547433 -9.621079 -3.088119 3.259958 0.319000 -0.247780 0.175780 0.091330 -2.503679 9.249609 5.788811 68.283355 24.450739 3.044898 0.329274 27.066389 -2.500034 2.470119 -1.668550 0.057650 -0.042370 -0.501690 -0.193310 
-1.551480 16.049370 -1.002290 -2.076881 -16.892544 -3.619252 -14.643631 10.915120 3.611596 29.286727 -0.461401 -24.532293 -7.061010 16.885752 46.314358 0.672938 9.620427 0.911792 0.788780 0.656010 0.813200 19.036955 -10.940814 3.689892 -17.715721 6.401400 -38.412374 2.833083 -12.863607 54.904663 -1.064074 -8.402871 1.336898 0.306020 -0.385570 -0.106810 -5.556796 3.213217 -8.562516 29.363426 -2.972025 16.356291 -1.294862 -0.687185 7.329442 1.120576 9.553978 -13.906735 23.215741 -17.930718 34.079925 1.130840 -8.173630 -8.616510 -0.104866 -12.345453 7.377669 -35.739152 5.445637 -10.784406 35.186131 -37.519762 -9.431836 -3.069489 3.256017 0.323780 -0.262810 0.184150 0.105090 -2.813598 9.123852 5.698213 68.631590 24.799837 3.375649 1.106376 26.775841 -2.304895 2.476549 -1.668356 0.060730 -0.023930 -0.516740 -0.184110 
